<svg width="18" height="18" fill="none" xmlns="http://www.w3.org/2000/svg"><path d="M17.638 14.366c0-.086 0-.172-.037-.258-.085-.258-.687-.528-.933-.65-.7-.393-1.411-.774-2.099-1.179-.32-.196-.712-.565-1.093-.565-.749 0-1.841 2.222-2.504 2.222-.332 0-.761-.306-1.056-.478-2.234-1.24-3.781-2.787-5.021-5.022-.172-.294-.479-.724-.479-1.055 0-.663 2.222-1.756 2.222-2.505 0-.38-.368-.773-.564-1.093-.406-.687-.786-1.4-1.18-2.099-.122-.245-.392-.847-.65-.933-.086-.037-.172-.037-.258-.037-.442 0-1.3.197-1.706.38-.602.259-.994.946-1.301 1.499-.393.724-.626 1.46-.626 2.283 0 1.142.466 2.173.847 3.217.27.749.601 1.473 1.019 2.148 1.289 2.087 3.805 4.604 5.892 5.893.676.417 1.4.749 2.149 1.019 1.043.38 2.075.847 3.216.847.823 0 1.56-.233 2.284-.626.552-.307 1.24-.7 1.498-1.301.184-.406.38-1.265.38-1.707z" fill="#FF6432"/></svg>