<svg width="18" height="18" fill="none" xmlns="http://www.w3.org/2000/svg"><path d="M17.286 14.366c0-.086 0-.172-.037-.258-.086-.258-.688-.528-.933-.65-.7-.393-1.412-.774-2.1-1.179-.319-.196-.711-.565-1.092-.565-.749 0-1.842 2.222-2.505 2.222-.331 0-.76-.306-1.055-.478-2.235-1.24-3.782-2.787-5.022-5.022-.171-.294-.478-.724-.478-1.055 0-.663 2.222-1.756 2.222-2.505 0-.38-.369-.773-.565-1.093-.405-.687-.786-1.4-1.179-2.099-.122-.245-.392-.847-.65-.933C3.806.714 3.72.714 3.634.714c-.442 0-1.301.197-1.707.38-.601.259-.994.946-1.3 1.499C.232 3.317 0 4.053 0 4.876 0 6.018.467 7.05.847 8.093c.27.749.602 1.473 1.02 2.148 1.288 2.087 3.805 4.604 5.892 5.893.675.417 1.4.749 2.148 1.019 1.044.38 2.075.847 3.217.847.822 0 1.559-.233 2.283-.626.553-.307 1.24-.7 1.498-1.301.184-.406.38-1.265.38-1.707z" fill="#FF6432"/></svg>