<svg width="19" height="17" fill="none" xmlns="http://www.w3.org/2000/svg"><path d="M7.356 15c0-.781-.648-1.429-1.429-1.429S4.5 14.22 4.5 15s.647 1.429 1.428 1.429A1.44 1.44 0 007.357 15zm10 0c0-.781-.648-1.429-1.429-1.429S14.5 14.22 14.5 15s.647 1.429 1.428 1.429A1.44 1.44 0 0017.357 15zm1.428-12.143a.72.72 0 00-.714-.714H4.666C4.554 1.607 4.532.714 3.784.714H.927a.72.72 0 00-.714.715c0 .39.324.714.714.714h2.277l1.975 9.185c-.178.346-.68 1.183-.68 1.53 0 .39.323.713.714.713H16.64a.72.72 0 00.715-.714.72.72 0 00-.715-.714H6.375c.111-.223.267-.458.267-.714 0-.268-.089-.525-.145-.782l11.652-1.361a.732.732 0 00.636-.715V2.857z" fill="#FF6432"/></svg>